HIERARCHY
ROOT root
{
	OFFSET	0.00	0.00	0.00
	CHANNELS 6 Xposition Yposition Zposition Zrotation Xrotation Yrotation
	JOINT back
	{
		OFFSET	 0.352955	 0.000000	 0.000000
		CHANNELS 3 Zrotation Xrotation Yrotation
		JOINT chest
		{
			OFFSET	 0.264817	 0.004177	 0.000000
			CHANNELS 3 Zrotation Xrotation Yrotation
			JOINT l_clavicle
			{
				OFFSET	 0.114550	 0.000716	-0.065320
				CHANNELS 3 Zrotation Xrotation Yrotation
				JOINT l_end_clavicle
				{
					OFFSET	 0.162817	-0.003802	 0.000069
					CHANNELS 3 Zrotation Xrotation Yrotation
					JOINT l_shoulder
					{
						OFFSET	 0.000000	 0.000000	 0.000000
						CHANNELS 3 Zrotation Xrotation Yrotation
						JOINT l_forearm
						{
							OFFSET	 0.266368	 0.006912	-0.045869
							CHANNELS 3 Zrotation Xrotation Yrotation
							JOINT l_end_wrist
							{
								OFFSET	 0.317021	-0.006522	 0.006333
								CHANNELS 3 Zrotation Xrotation Yrotation
								JOINT l_index1
								{
									OFFSET	 0.152748	-0.021000	-0.014320
									CHANNELS 3 Zrotation Xrotation Yrotation
									JOINT l_index2
									{
										OFFSET	 0.039283	 0.000000	 0.000000
										CHANNELS 3 Zrotation Xrotation Yrotation
										JOINT l_index3
										{
											OFFSET	 0.038151	 0.000000	 0.000000
											CHANNELS 3 Zrotation Xrotation Yrotation
											End Site
											{
												OFFSET	 0.038151	 0.000000	 0.000000
											}
										}
									}
								}
								JOINT l_middle1
								{
									OFFSET	 0.151723	 0.016194	-0.014667
									CHANNELS 3 Zrotation Xrotation Yrotation
									JOINT l_middle_2
									{
										OFFSET	 0.038269	 0.000000	 0.000000
										CHANNELS 3 Zrotation Xrotation Yrotation
										JOINT l_middle_3
										{
											OFFSET	 0.039743	 0.000000	 0.000000
											CHANNELS 3 Zrotation Xrotation Yrotation
											End Site
											{
												OFFSET	 0.039743	 0.000000	 0.000000
											}
										}
									}
								}
								JOINT l_pinky1
								{
									OFFSET	 0.117088	 0.077397	-0.013819
									CHANNELS 3 Zrotation Xrotation Yrotation
									JOINT l_pinky2
									{
										OFFSET	 0.028938	 0.000000	 0.000000
										CHANNELS 3 Zrotation Xrotation Yrotation
										JOINT l_pinky3
										{
											OFFSET	 0.027080	 0.000000	 0.000000
											CHANNELS 3 Zrotation Xrotation Yrotation
											End Site
											{
												OFFSET	 0.027080	 0.000000	 0.000000
											}
										}
									}
								}
								JOINT l_ring1
								{
									OFFSET	 0.137788	 0.047650	-0.014135
									CHANNELS 3 Zrotation Xrotation Yrotation
									JOINT l_ring2
									{
										OFFSET	 0.030749	 0.000000	 0.000000
										CHANNELS 3 Zrotation Xrotation Yrotation
										JOINT l_ring3
										{
											OFFSET	 0.032711	 0.000000	 0.000000
											CHANNELS 3 Zrotation Xrotation Yrotation
											End Site
											{
												OFFSET	 0.032711	 0.000000	 0.000000
											}
										}
									}
								}
								JOINT l_thumb1
								{
									OFFSET	 0.054053	-0.036728	-0.011261
									CHANNELS 3 Zrotation Xrotation Yrotation
									JOINT l_thumb_2
									{
										OFFSET	 0.051141	-0.005593	-0.001180
										CHANNELS 3 Zrotation Xrotation Yrotation
										JOINT l_thumb_3
										{
											OFFSET	 0.046422	-0.001905	 0.000191
											CHANNELS 3 Zrotation Xrotation Yrotation
											End Site
											{
												OFFSET	 0.046422	-0.001905	 0.000191
											}
										}
									}
								}
							}
						}
					}
				}
			}
			JOINT neck
			{
				OFFSET	 0.143918	 0.000470	 0.000000
				CHANNELS 3 Zrotation Xrotation Yrotation
				JOINT head
				{
					OFFSET	 0.000000	-0.000205	 0.055236
					CHANNELS 3 Zrotation Xrotation Yrotation
					End Site
					{
						OFFSET	 0.000000	-0.000205	 0.055236
					}
				}
			}
			JOINT r_clavicle
			{
				OFFSET	 0.114552	 0.000716	 0.065320
				CHANNELS 3 Zrotation Xrotation Yrotation
				JOINT r_end_clavicle
				{
					OFFSET	-0.162817	 0.003801	-0.000067
					CHANNELS 3 Zrotation Xrotation Yrotation
					JOINT r_shoulder
					{
						OFFSET	 0.000000	 0.000000	 0.000000
						CHANNELS 3 Zrotation Xrotation Yrotation
						JOINT r_forearm
						{
							OFFSET	-0.266367	-0.006912	 0.045867
							CHANNELS 3 Zrotation Xrotation Yrotation
							JOINT r_end_wrist
							{
								OFFSET	-0.317022	 0.006522	-0.006331
								CHANNELS 3 Zrotation Xrotation Yrotation
								JOINT r_index1
								{
									OFFSET	-0.152748	 0.021000	 0.014322
									CHANNELS 3 Zrotation Xrotation Yrotation
									JOINT r_index2
									{
										OFFSET	-0.039280	 0.000000	-0.000001
										CHANNELS 3 Zrotation Xrotation Yrotation
										JOINT r_index3
										{
											OFFSET	-0.038152	 0.000000	-0.000001
											CHANNELS 3 Zrotation Xrotation Yrotation
											End Site
											{
												OFFSET	-0.038152	 0.000000	-0.000001
											}
										}
									}
								}
								JOINT r_middle1
								{
									OFFSET	-0.151722	-0.016194	 0.014664
									CHANNELS 3 Zrotation Xrotation Yrotation
									JOINT r_middle_2
									{
										OFFSET	-0.038270	 0.000000	 0.000003
										CHANNELS 3 Zrotation Xrotation Yrotation
										JOINT r_middle_3
										{
											OFFSET	-0.039744	 0.000000	 0.000000
											CHANNELS 3 Zrotation Xrotation Yrotation
											End Site
											{
												OFFSET	-0.039744	 0.000000	 0.000000
											}
										}
									}
								}
								JOINT r_pinky1
								{
									OFFSET	-0.117090	-0.077397	 0.013818
									CHANNELS 3 Zrotation Xrotation Yrotation
									JOINT r_pinky2
									{
										OFFSET	-0.028938	 0.000000	 0.000000
										CHANNELS 3 Zrotation Xrotation Yrotation
										JOINT r_pinky3
										{
											OFFSET	-0.027079	-0.000001	 0.000000
											CHANNELS 3 Zrotation Xrotation Yrotation
											End Site
											{
												OFFSET	-0.027079	-0.000001	 0.000000
											}
										}
									}
								}
								JOINT r_ring1
								{
									OFFSET	-0.137790	-0.047650	 0.014136
									CHANNELS 3 Zrotation Xrotation Yrotation
									JOINT r_ring2
									{
										OFFSET	-0.030748	 0.000000	-0.000001
										CHANNELS 3 Zrotation Xrotation Yrotation
										JOINT r_ring3
										{
											OFFSET	-0.032707	-0.000001	 0.000003
											CHANNELS 3 Zrotation Xrotation Yrotation
											End Site
											{
												OFFSET	-0.032707	-0.000001	 0.000003
											}
										}
									}
								}
								JOINT r_thumb1
								{
									OFFSET	-0.054054	 0.036728	 0.011262
									CHANNELS 3 Zrotation Xrotation Yrotation
									JOINT r_thumb_2
									{
										OFFSET	-0.051140	 0.005594	 0.001177
										CHANNELS 3 Zrotation Xrotation Yrotation
										JOINT r_thumb_3
										{
											OFFSET	-0.046419	 0.001906	-0.000190
											CHANNELS 3 Zrotation Xrotation Yrotation
											End Site
											{
												OFFSET	-0.046419	 0.001906	-0.000190
											}
										}
									}
								}
							}
						}
					}
				}
			}
		}
	}
	JOINT Pelvis
	{
		OFFSET	 0.000000	 0.000000	 0.000000
		CHANNELS 3 Zrotation Xrotation Yrotation
		JOINT l_thigh
		{
			OFFSET	-0.000001	-0.129194	 0.000000
			CHANNELS 3 Zrotation Xrotation Yrotation
			End Site
			{
				OFFSET	-0.000001	-0.129194	 0.000000
			}
		}
		JOINT r_thigh
		{
			OFFSET	 0.000001	 0.129194	 0.000000
			CHANNELS 3 Zrotation Xrotation Yrotation
			End Site
			{
				OFFSET	 0.000001	 0.129194	 0.000000
			}
		}
	}
}
MOTION
Frames:    4
Frame Time: 0.01666667
 0.038769	-0.064507	 0.015132	-90.944530	 3.921390	-89.825760	-9.273819	 0.425841	-0.310245	-8.468158	 0.981055	-0.271089	-0.269620	 0.781684	 110.202800	-0.813313	 0.122417	-8.559153	-14.147970	 10.741210	 72.924480	-31.486700	 27.000930	 5.393254	 26.719980	 7.431425	-60.941410	-10.315810	-3.374880	 50.283760	 2.465345	-1.148517	 54.713690	 2.451210	 1.017996	-43.714030	-0.583764	 1.094534	 40.767560	-0.232200	 3.161109	 24.381770	 2.666018	 5.020553	-60.107580	 34.658180	 18.566090	 20.452260	-6.659822	 19.253390	 19.722520	-5.672762	 19.248520	-71.889790	 16.353650	 9.074822	 30.882050	-3.759713	 9.438661	 25.739650	-0.519783	 10.340870	-63.924520	-35.855160	-1.452688	 30.879120	 15.609720	-0.539451	 0.135676	 14.705610	-0.367942	 3.437226	 0.568723	-0.584513	 90.060290	-95.080330	-17.931000	-106.843200	 179.293300	 2.478029	 110.279000	-0.813313	 0.122417	-8.559153	-6.276515	 20.340340	 52.282650	-44.380330	 21.564860	 8.205181	 17.875530	 12.540470	-19.760370	-10.557710	-3.564083	 52.282610	 2.463842	-1.150477	 57.512790	 2.452199	 1.017006	-43.742250	-0.532323	 1.131356	 42.173900	-0.211612	 3.172169	 32.240680	 2.637641	 5.081716	-59.156230	 31.504190	 17.166220	 21.413810	-6.562398	 19.291880	 25.293940	-5.713845	 19.253790	-73.899020	 14.282440	 7.822553	 29.871760	-3.707325	 9.467494	 32.419740	-0.546874	 10.457610	-61.168320	-65.575550	-12.285320	-23.033340	 16.292780	-0.540723	 0.141526	 63.346610	-0.350049	 3.865706	 0.000000	 90.000000	 0.000000	 173.621600	 3.019877	 173.641100	-167.137700	-25.583540	-11.937030
 0.034181	-0.077856	 0.015188	-99.213180	 3.971848	-90.705920	-9.086906	-0.258195	-0.715912	-8.340399	-0.840134	-0.647984	-0.150243	 0.354263	 109.708100	-0.813313	 0.122417	-8.559153	-13.018310	 12.394230	 70.376050	-45.435540	 25.553330	 7.311606	 26.755360	 8.444751	-56.177090	-10.501860	-3.550758	 50.180480	 2.465425	-1.148404	 54.560230	 2.493068	 0.974416	-44.880550	-0.548458	 1.122457	 40.701360	-0.233556	 3.160502	 23.882320	 2.672892	 5.005328	-60.343180	 35.034210	 18.730230	 20.279570	-6.666075	 19.251300	 19.372650	-5.676154	 19.248850	-72.056380	 16.569490	 9.212613	 30.781940	-3.763394	 9.436929	 25.286350	-0.517716	 10.330630	-64.165160	-37.568150	-3.535429	 25.700190	 15.665190	-0.539543	 0.136149	 14.927360	-0.368701	 3.439095	 0.536264	-1.588449	 90.017860	-95.421780	-15.116270	-105.024900	 179.313700	 2.407878	 110.218900	-0.813313	 0.122417	-8.559153	-4.927630	 20.965510	 52.547700	-48.357560	 17.373120	 8.098817	 17.609290	 9.406077	-20.440310	-10.569160	-3.576988	 52.184150	 2.463944	-1.150321	 57.304790	 2.455096	 1.014042	-43.822260	-0.431867	 1.212458	 42.043990	-0.212551	 3.171580	 31.867770	 2.655229	 5.044137	-59.741450	 32.221140	 17.500480	 21.059010	-6.567587	 19.289610	 24.992180	-5.728644	 19.255810	-74.629520	 14.728530	 8.110259	 29.605840	-3.710609	 9.465473	 31.990840	-0.542407	 10.439800	-61.591530	-62.073060	-12.519970	-15.621940	 16.212360	-0.540597	 0.140836	 57.958100	-0.369970	 3.820996	 0.000000	 90.000000	 0.000000	 175.260800	 2.781979	 172.872900	-166.164000	-22.306640	-13.148420
 0.026340	-0.091296	 0.015109	-108.039800	 4.131587	-91.624810	-8.883402	-0.947329	-1.115240	-8.214719	-2.687955	-1.019880	-0.033821	-0.076787	 109.208300	-0.813313	 0.122417	-8.559153	-11.862670	 14.033770	 67.828990	-58.911990	 23.949440	 8.857561	 26.748420	 9.668557	-51.084820	-10.689780	-3.727653	 50.080220	 2.465502	-1.148296	 54.411810	 2.534372	 0.929613	-46.056890	-0.512746	 1.150622	 40.639760	-0.234475	 3.160099	 23.545150	 2.679887	 4.989663	-60.585170	 35.395700	 18.886620	 20.112990	-6.670857	 19.249720	 19.105690	-5.681003	 19.249330	-72.295110	 16.781740	 9.347648	 30.678250	-3.766253	 9.435604	 24.935280	-0.515724	 10.320540	-64.401940	-39.472550	-5.449234	 20.473720	 15.721230	-0.539652	 0.136630	 15.084280	-0.369230	 3.440420	 0.500944	-2.547036	 89.976590	-95.807850	-12.348060	-103.133700	 179.333600	 2.338504	 110.161900	-0.813313	 0.122417	-8.559153	-3.526806	 21.527480	 52.517970	-52.485420	 13.082320	 7.903440	 17.251450	 6.210350	-20.760710	-10.581110	-3.590380	 52.082880	 2.464050	-1.150159	 57.089010	 2.458071	 1.010991	-43.904500	-0.330012	 1.294305	 41.912440	-0.213486	 3.171003	 31.498510	 2.672338	 5.006583	-60.323510	 32.944130	 17.831180	 20.705390	-6.572753	 19.287360	 24.692370	-5.743464	 19.258020	-75.362530	 15.175840	 8.395172	 29.349130	-3.713919	 9.463468	 31.560440	-0.538050	 10.421850	-62.017150	-58.194290	-12.293630	-8.070422	 16.126300	-0.540453	 0.140099	 52.157230	-0.386620	 3.771003	 0.000000	 90.000000	 0.000000	 176.804300	 2.526673	 172.143000	-165.063500	-19.012470	-14.347430
 0.021370	-0.097383	 0.015041	-112.379200	 4.234802	-92.058020	-8.780473	-1.275855	-1.302199	-8.155410	-3.573735	-1.194596	 0.020174	-0.281846	 108.969600	-0.813313	 0.122417	-8.559153	-11.326030	 14.747780	 66.640410	-65.215230	 23.309900	 9.453488	 26.882600	 10.410490	-48.650990	-10.779530	-3.811882	 50.034020	 2.465538	-1.148246	 54.343940	 2.553749	 0.907944	-46.618030	-0.495622	 1.164100	 40.612240	-0.234781	 3.159966	 23.433020	 2.683196	 4.982188	-60.700470	 35.558220	 18.956510	 20.037360	-6.672616	 19.249140	 19.007480	-5.683465	 19.249580	-72.416070	 16.878120	 9.408849	 30.627010	-3.767323	 9.435118	 24.804230	-0.514815	 10.315860	-64.511650	-40.436300	-6.291589	 17.977990	 15.747970	-0.539696	 0.136858	 15.132600	-0.369389	 3.440829	 0.483140	-2.984499	 89.957420	-96.006140	-11.047630	-102.208300	 179.342900	 2.306000	 110.135700	-0.813313	 0.122417	-8.559153	-2.868108	 21.779020	 52.499460	-54.447530	 11.041760	 7.776104	 17.063160	 4.678123	-20.869860	-10.586750	-3.596689	 52.035210	 2.464101	-1.150082	 56.986260	 2.459469	 1.009555	-43.943170	-0.282001	 1.332752	 41.851760	-0.213926	 3.170734	 31.325150	 2.680269	 4.988826	-60.597800	 33.283240	 17.984130	 20.540940	-6.575191	 19.286320	 24.551160	-5.750377	 19.259120	-75.705090	 15.380960	 8.524732	 29.233180	-3.715471	 9.462541	 31.359280	-0.535961	 10.413030	-62.226020	-56.258940	-12.004510	-4.486565	 16.083710	-0.540380	 0.139735	 49.276270	-0.392995	 3.745614	 0.000000	 90.000000	 0.000000	 177.501200	 2.399535	 171.813900	-164.512500	-17.436510	-14.920230
